<?xml version="1.0" encoding="UTF-8"?><svg xmlns="http://www.w3.org/2000/svg" xmlns:xlink="http://www.w3.org/1999/xlink" height="494.0" preserveAspectRatio="xMidYMid meet" version="1.0" viewBox="2.2 8.0 505.9 494.0" width="505.9" zoomAndPan="magnify"><linearGradient gradientUnits="userSpaceOnUse" id="a" x1="42.838" x2="471.15" xlink:actuate="onLoad" xlink:show="other" xlink:type="simple" xmlns:xlink="http://www.w3.org/1999/xlink" y1="135.431" y2="382.717"><stop offset=".006" stop-color="#b56376"/><stop offset=".218" stop-color="#f5c7d4"/><stop offset=".487" stop-color="#c07782"/><stop offset=".77" stop-color="#f8dde3"/><stop offset="1" stop-color="#bb636d"/></linearGradient><path d="M499.11,192.5c-9.41-38.8-29.12-74.58-56.28-103.8c-15.27-16.44-32.92-30.75-52.26-42.15 c0.01-0.54-0.22-1.09-0.82-1.46c-32.03-19.79-68.8-31.03-106.26-34.04c-37.59-3.02-75.91,2.19-111.38,15 c-35.31,12.75-68.01,33.1-93.92,60.37c-26.5,27.9-45.14,62.59-55.22,99.64c-1.65,6.06-3.05,12.18-4.25,18.34 c-13.96,40.6-16.51,84.82-7.18,126.75c9.25,41.53,30.59,80.69,62.75,108.87c27.06,23.72,60.81,39.79,96.33,45.63 c28.68,10.47,59.19,15.9,89.72,16.1c37.89,0.25,75.92-7.61,110.15-23.98c34.04-16.28,63.25-41.21,85.48-71.63 c22.1-30.23,37.27-65.55,44.7-102.22C508.09,267.25,507.94,228.94,499.11,192.5z M125.97,52.67 c31.45-19.63,67.37-32.04,104.14-36.65c29.42-3.69,59.49-2.49,88.41,4.02c-39.13-6.69-79.83-2.58-117.55,9.58 c-42.32,13.63-81.23,37.26-113.2,68.12c-24.03,23.2-44.16,50.58-58.47,80.77c4.98-15.98,11.57-31.45,19.81-46.04 C67.54,99.8,94.19,72.51,125.97,52.67z M36.75,384.84c-20.15-37.2-28.44-80.42-25.23-122.5c0.54-7.07,1.45-14.08,2.66-21.03 c-1.03,19.9,0.15,39.92,3.52,59.55c6.5,37.91,21.4,74.6,44.45,105.48c21.76,29.15,50.59,52.44,83.15,68.5 c-6.83-2.18-13.53-4.75-20.04-7.68C87.51,450.13,56.48,421.26,36.75,384.84z M477.72,359.11c-15.08,33.29-37.23,63.42-65.49,86.7 c-28.75,23.69-63.54,39.34-99.97,46.69c-36.6,7.39-74.85,6.53-111.17-2.01c-3.42-0.8-6.82-1.7-10.21-2.64 c18.04,0.9,36.11-1.1,53.53-5.92c2.58-0.71,1.48-4.72-1.11-4.01c-24.07,6.65-49.49,7.27-74.04,2.89 c-24.41-9.17-47.41-22.06-67.57-38.63c-29.18-23.98-51.56-55.45-65.59-90.47c-14.08-35.16-20.04-73.4-17.95-111.18 c0.53-9.59,1.59-19.15,3.18-28.63c7.36-23.5,18.35-45.87,32.18-66.31c23.51-34.75,55.11-64.01,91.16-85.39 C183.44,37.2,228,23.12,273.16,21.84c43.56-1.24,86.33,10.31,122.95,34.01c34.42,22.29,62.63,54.07,81,90.7 c16.41,32.71,24.14,69.38,23.95,105.89C500.86,289.06,492.83,325.74,477.72,359.11z" fill="url(#a)"/></svg>